<?xml version="1.0" standalone="no"?>
<!DOCTYPE svg PUBLIC "-//W3C//DTD SVG 20010904//EN"
 "http://www.w3.org/TR/2001/REC-SVG-20010904/DTD/svg10.dtd">
<svg version="1.0" xmlns="http://www.w3.org/2000/svg"
 width="980.000000pt" height="980.000000pt" viewBox="0 0 980.000000 980.000000"
 preserveAspectRatio="xMidYMid meet">
<metadata>
Created by potrace 1.11, written by Peter Selinger 2001-2013
</metadata>
<g transform="translate(0.000000,980.000000) scale(0.100000,-0.100000)"
fill="#000000" stroke="none">
<path d="M3985 9790 c-146 -7 -187 -16 -270 -58 -27 -14 -53 -25 -57 -24 -5 1
-8 -2 -8 -6 0 -4 -24 -25 -52 -46 -84 -61 -181 -196 -212 -296 -5 -14 -9 -27
-10 -30 -8 -20 -18 -102 -20 -158 -2 -56 4 -108 27 -232 1 -9 18 -42 36 -75
19 -33 33 -61 33 -62 -1 -2 26 -32 61 -67 143 -146 297 -215 497 -222 52 -1
101 -3 108 -3 11 -1 12 -24 6 -123 -4 -68 -7 -130 -6 -140 0 -12 -19 -22 -81
-39 -45 -12 -89 -23 -97 -24 -8 -1 -22 -5 -30 -8 -8 -3 -82 -24 -165 -47 -82
-23 -193 -58 -245 -77 -52 -19 -99 -36 -105 -37 -5 -2 -32 -13 -58 -24 -27
-12 -50 -22 -52 -22 -13 0 -296 -142 -411 -205 -881 -489 -1584 -1336 -1904
-2297 -147 -441 -213 -846 -213 -1318 0 -253 10 -402 39 -595 9 -55 17 -113
20 -130 17 -133 115 -494 188 -691 135 -366 321 -717 542 -1021 246 -338 623
-714 952 -950 240 -172 825 -470 1089 -554 37 -12 70 -26 71 -31 2 -4 7 -6 12
-3 5 3 28 -1 52 -9 24 -7 84 -23 133 -36 50 -12 97 -24 105 -27 8 -3 24 -7 35
-9 11 -1 83 -14 160 -29 77 -14 160 -28 185 -30 25 -3 90 -10 145 -17 111 -13
615 -17 765 -6 192 15 479 65 680 117 41 11 78 18 82 15 4 -3 8 0 8 5 0 6 6
11 14 11 25 0 258 81 411 142 83 33 225 98 316 144 92 45 170 80 173 77 3 -4
6 -2 6 4 0 6 37 32 83 58 45 27 114 70 154 97 40 26 77 48 83 48 5 0 10 4 10
9 0 8 62 50 75 51 2 0 15 10 28 23 42 40 128 102 138 99 5 -1 8 2 7 6 -2 4 44
49 102 99 58 50 120 107 139 126 19 20 38 34 43 31 5 -3 7 -2 6 3 -4 13 78 93
87 85 5 -4 5 -2 2 4 -7 13 16 37 26 29 4 -3 5 -2 2 1 -4 6 81 107 153 183 7 8
20 24 29 37 8 13 20 21 26 17 5 -3 8 -2 4 3 -7 12 118 175 128 166 5 -4 5 -2
2 4 -4 6 4 23 17 37 13 14 22 28 20 30 -2 2 7 16 20 30 14 15 22 27 19 27 -3
0 1 8 9 18 9 9 55 82 103 162 109 183 242 448 286 572 7 21 16 38 19 38 4 0 7
6 7 13 0 21 66 202 75 205 4 2 6 7 3 12 -3 4 5 34 16 66 11 33 22 66 24 74 9
41 37 147 42 160 3 8 7 24 9 35 1 11 7 40 14 65 6 25 12 57 15 71 2 14 11 64
20 110 9 46 18 104 21 129 2 25 6 56 9 70 28 152 38 626 18 859 -15 177 -46
388 -78 538 -14 61 -26 122 -29 135 -2 13 -9 36 -15 51 -6 15 -10 31 -9 35 1
4 -2 14 -5 22 -3 8 -29 84 -57 168 -122 366 -302 728 -537 1079 -85 128 -101
158 -94 176 11 27 75 102 185 217 170 180 208 223 251 288 25 37 49 72 53 77
5 6 8 12 9 15 0 3 5 29 12 58 22 106 7 231 -41 326 -23 47 -109 165 -120 166
-5 0 -30 16 -57 35 -26 19 -53 35 -60 35 -6 0 -11 4 -11 10 0 5 -3 9 -7 8 -5
-1 -35 7 -68 17 -61 18 -242 27 -252 12 -2 -4 -10 -7 -16 -5 -15 3 -126 -52
-151 -74 -10 -10 -23 -15 -28 -12 -5 3 -7 2 -6 -3 2 -5 -15 -25 -37 -44 -61
-52 -207 -193 -312 -300 l-95 -97 -121 84 c-163 111 -301 197 -425 264 -56 30
-102 60 -102 66 0 6 -48 30 -107 54 -60 24 -119 51 -133 59 -13 9 -24 14 -25
13 0 -4 -28 7 -90 33 -41 17 -130 50 -192 72 -29 10 -53 21 -53 26 0 4 -4 6
-9 3 -5 -3 -28 1 -52 10 -24 8 -84 26 -134 40 -49 14 -97 27 -105 31 -8 3 -22
6 -30 7 -8 1 -59 10 -112 20 l-98 20 0 143 0 143 43 1 c210 4 377 54 470 139
22 19 43 35 48 35 5 0 10 5 10 10 1 6 21 32 45 59 24 26 44 52 44 58 0 5 6 6
13 2 6 -4 9 -4 5 0 -3 4 8 38 26 74 41 83 56 138 65 233 12 137 -44 306 -140
421 -26 32 -49 61 -51 66 -1 4 -32 32 -67 61 -62 51 -134 91 -176 97 -11 1
-49 8 -85 15 -72 14 -1677 21 -1935 9z"/>
</g>
</svg>
