<?xml version="1.0" standalone="no"?>
<!DOCTYPE svg PUBLIC "-//W3C//DTD SVG 20010904//EN"
 "http://www.w3.org/TR/2001/REC-SVG-20010904/DTD/svg10.dtd">
<svg version="1.0" xmlns="http://www.w3.org/2000/svg"
 width="980.000000pt" height="980.000000pt" viewBox="0 0 980.000000 980.000000"
 preserveAspectRatio="xMidYMid meet">
<metadata>
Created by potrace 1.11, written by Peter Selinger 2001-2013
</metadata>
<g transform="translate(0.000000,980.000000) scale(0.100000,-0.100000)"
fill="#000000" stroke="none">
<path d="M4148 9795 c-2 -1 -70 -5 -153 -8 -168 -6 -211 -17 -316 -78 -164
-95 -284 -263 -313 -439 -3 -14 -5 -27 -6 -30 -6 -19 1 -173 10 -222 39 -213
203 -388 439 -469 68 -24 130 -32 240 -32 l83 -1 -7 -140 c-4 -87 -11 -144
-18 -148 -6 -4 -43 -15 -82 -24 -124 -30 -415 -114 -514 -148 -129 -45 -366
-148 -391 -169 -11 -9 -20 -15 -20 -12 0 8 -124 -56 -131 -67 -3 -5 -9 -9 -13
-9 -13 2 -146 -70 -146 -79 0 -6 -3 -9 -7 -9 -21 3 -33 -2 -27 -13 4 -6 3 -8
-3 -5 -10 6 -161 -85 -174 -105 -3 -5 -8 -9 -10 -7 -7 4 -119 -73 -119 -82 0
-5 -5 -9 -11 -9 -13 0 -79 -49 -144 -107 -12 -10 -36 -30 -55 -44 -19 -15 -57
-48 -85 -73 -27 -25 -53 -45 -57 -46 -5 0 -8 -7 -8 -16 0 -8 -4 -13 -9 -10
-12 8 -43 -29 -34 -39 5 -4 3 -6 -3 -2 -13 8 -187 -167 -177 -178 5 -4 3 -5
-4 -1 -7 4 -19 -4 -29 -19 -9 -14 -32 -42 -50 -61 -76 -81 -179 -204 -170
-204 3 0 -7 -14 -24 -31 -16 -18 -30 -35 -30 -39 0 -3 -15 -24 -34 -45 -19
-21 -33 -42 -30 -47 3 -4 1 -8 -4 -8 -10 0 -149 -212 -144 -219 2 -2 -1 -7 -6
-10 -12 -7 -120 -192 -124 -212 -2 -8 -7 -17 -13 -21 -5 -4 -10 -11 -10 -15
-1 -4 -6 -18 -13 -30 -7 -13 -9 -23 -5 -23 4 0 0 -5 -9 -11 -10 -5 -18 -19
-18 -29 0 -11 -3 -20 -7 -20 -5 0 -17 -21 -27 -48 -11 -26 -32 -75 -48 -110
-15 -34 -28 -65 -28 -68 0 -3 -9 -24 -19 -47 -11 -24 -23 -56 -27 -72 -4 -17
-10 -34 -14 -40 -13 -17 -69 -208 -64 -217 3 -4 0 -8 -7 -8 -7 0 -9 -3 -6 -7
4 -3 2 -11 -3 -18 -5 -7 -12 -25 -14 -41 -2 -16 -6 -36 -9 -44 -21 -51 -58
-220 -92 -415 -29 -166 -48 -419 -48 -620 0 -147 11 -434 18 -445 1 -3 6 -34
9 -70 21 -221 89 -523 178 -799 52 -160 165 -444 180 -449 4 -2 8 -10 8 -19 0
-39 206 -404 329 -583 146 -213 446 -570 480 -570 6 0 10 -4 9 -9 -5 -17 364
-350 462 -417 19 -13 71 -49 115 -80 72 -50 110 -74 255 -158 66 -38 445 -228
517 -258 33 -15 64 -24 67 -21 3 4 6 2 6 -4 0 -16 219 -94 395 -142 251 -68
527 -117 785 -139 136 -11 594 -7 725 7 552 58 1007 195 1520 456 99 51 197
103 217 116 297 190 461 313 643 477 387 349 694 751 926 1212 75 150 106 217
139 305 13 33 29 74 36 90 8 17 34 91 58 165 192 585 253 1200 180 1810 -14
122 -20 159 -29 210 -3 14 -7 41 -10 60 -23 144 -124 508 -170 615 -7 17 -23
57 -35 90 -25 67 -25 67 -78 187 -21 49 -42 85 -47 80 -4 -4 -5 -2 -2 4 8 14
-86 207 -96 199 -4 -3 -5 -2 -2 1 5 8 -34 87 -49 96 -6 4 -8 8 -3 8 6 0 -19
46 -33 60 -3 3 -16 26 -30 53 -13 26 -28 47 -31 47 -4 0 -9 8 -12 18 -9 29
-47 87 -79 123 -10 10 -15 19 -12 19 6 0 -85 132 -98 141 -11 7 41 88 92 142
22 24 36 48 32 52 -4 5 -2 5 4 2 13 -7 57 36 47 46 -3 4 -1 7 6 7 11 0 57 45
175 175 62 68 127 163 147 216 92 241 -52 531 -311 630 -68 26 -102 31 -195
30 -124 -1 -206 -36 -330 -145 -120 -105 -335 -318 -329 -328 3 -5 0 -7 -8 -6
-7 2 -12 -4 -10 -12 2 -8 0 -12 -4 -7 -4 4 -20 -4 -35 -19 -17 -16 -29 -22
-34 -15 -3 6 -11 9 -16 6 -5 -4 -9 -2 -9 3 0 12 -131 98 -143 94 -5 -1 -6 1
-3 6 3 5 -7 15 -22 23 -15 8 -29 16 -32 19 -10 10 -116 78 -150 96 -19 11 -36
22 -38 27 -2 4 -8 7 -13 7 -5 0 -26 11 -47 23 -20 13 -64 39 -97 57 -33 18
-64 39 -70 46 -5 7 -71 38 -145 70 -74 31 -141 61 -147 66 -7 6 -13 8 -13 4 0
-4 -13 0 -28 8 -112 58 -492 177 -691 217 l-111 22 0 143 0 144 28 1 c73 2
225 20 272 31 151 37 321 182 399 338 84 171 92 329 25 497 -36 91 -87 164
-173 248 -108 106 -176 137 -351 161 -42 6 -1715 15 -1722 9z"/>
</g>
</svg>
